<?xml version="1.0" standalone="no"?>
<!DOCTYPE svg PUBLIC "-//W3C//DTD SVG 20010904//EN"
 "http://www.w3.org/TR/2001/REC-SVG-20010904/DTD/svg10.dtd">
<svg version="1.0" xmlns="http://www.w3.org/2000/svg"
 width="500.000000pt" height="217.000000pt" viewBox="0 0 500.000000 217.000000"
 preserveAspectRatio="xMidYMid meet">

<g transform="translate(0.000000,217.000000) scale(0.100000,-0.100000)"
fill="#000000" stroke="none">
<path d="M1380 1620 c-11 -11 -20 -24 -20 -29 0 -40 44 -67 84 -51 32 12 42
45 22 75 -20 31 -58 33 -86 5z"/>
<path d="M3034 1615 c-31 -47 15 -96 70 -75 54 20 35 100 -24 100 -20 0 -35
-8 -46 -25z"/>
<path d="M3447 1634 c-4 -4 -7 -45 -7 -92 0 -76 -2 -83 -17 -76 -10 4 -43 10
-74 12 -49 3 -59 0 -89 -24 -43 -37 -60 -80 -60 -156 0 -75 26 -136 70 -162
39 -22 113 -23 146 -1 24 15 27 15 38 0 8 -11 23 -16 46 -13 l35 3 0 255 0
255 -40 3 c-23 2 -44 0 -48 -4z m-23 -230 c13 -5 16 -24 16 -100 0 -103 -7
-114 -69 -114 -46 0 -71 39 -71 110 0 73 25 110 75 110 18 0 40 -3 49 -6z"/>
<path d="M806 1464 c-21 -12 -30 -13 -36 -4 -4 6 -24 10 -46 8 l-39 -3 0 -240
0 -240 48 -3 47 -3 0 80 c0 45 2 81 4 81 3 0 17 -5 33 -11 75 -28 150 -3 183
62 45 87 34 197 -25 256 -29 29 -39 33 -86 33 -30 -1 -67 -8 -83 -16z m100
-75 c14 -16 19 -36 19 -83 0 -81 -21 -116 -71 -116 -67 0 -74 10 -74 110 0
100 6 109 71 110 24 0 42 -7 55 -21z"/>
<path d="M1255 1470 c-12 -4 -27 -15 -34 -24 -18 -21 -28 -20 -36 4 -5 16 -15
20 -46 20 l-39 0 2 -172 3 -173 45 0 45 0 3 126 3 127 31 6 c17 3 43 6 59 6
28 0 29 2 29 45 0 40 -2 45 -22 44 -13 0 -32 -4 -43 -9z"/>
<path d="M1686 1463 c-29 -12 -41 -13 -44 -5 -2 7 -21 12 -43 12 l-39 0 0
-176 0 -175 48 3 47 3 3 130 c3 144 7 155 69 155 22 0 36 -6 43 -19 5 -11 10
-76 10 -146 l0 -126 48 3 47 3 3 130 c3 144 7 155 69 155 22 0 36 -6 43 -19 5
-11 10 -76 10 -146 l0 -126 48 3 47 3 0 152 c0 147 -1 152 -24 177 -20 22 -33
26 -78 26 -34 0 -68 -7 -92 -20 -38 -19 -39 -19 -56 0 -23 25 -102 26 -159 3z"/>
<path d="M2255 1466 c-78 -34 -114 -141 -85 -248 14 -51 68 -95 126 -104 49
-7 153 11 155 27 5 43 2 54 -17 51 -10 -1 -45 -3 -77 -5 -53 -2 -61 1 -83 26
-40 47 -33 57 42 57 76 0 126 20 143 56 37 83 -22 154 -126 154 -26 -1 -61 -7
-78 -14z m103 -62 c24 -17 29 -43 10 -62 -14 -14 -118 -16 -118 -2 0 21 24 59
44 68 29 15 38 14 64 -4z"/>
<path d="M3700 1463 c-65 -34 -99 -116 -86 -207 18 -116 122 -171 251 -132 35
10 40 15 40 41 0 24 -4 29 -20 27 -11 -1 -46 -3 -77 -5 -62 -2 -89 14 -103 61
-6 21 -4 22 65 22 108 0 150 29 150 104 0 25 -9 45 -29 68 -25 28 -35 32 -92
35 -48 3 -73 -1 -99 -14z m122 -66 c26 -41 -2 -67 -70 -67 -51 0 -53 1 -47 23
11 37 54 69 84 62 14 -4 29 -12 33 -18z"/>
<path d="M4050 1457 c-53 -35 -75 -81 -75 -157 1 -123 58 -185 170 -185 116 0
170 59 170 185 0 126 -52 180 -173 180 -45 0 -67 -5 -92 -23z m141 -66 c21
-17 24 -28 24 -89 0 -83 -18 -112 -71 -112 -38 0 -60 25 -70 77 -20 104 50
178 117 124z"/>
<path d="M1372 1298 l3 -173 45 0 45 0 3 173 2 172 -50 0 -50 0 2 -172z"/>
<path d="M2630 1467 c0 -5 88 -237 115 -305 17 -43 18 -43 63 -40 l46 3 63
160 c34 88 63 166 63 173 0 8 -16 12 -48 12 l-48 0 -32 -113 c-18 -62 -37
-118 -41 -125 -5 -8 -21 35 -43 110 l-34 123 -52 3 c-29 2 -52 1 -52 -1z"/>
<path d="M3032 1298 l3 -173 45 0 45 0 3 173 2 172 -50 0 -50 0 2 -172z"/>
<path d="M3185 939 c-58 -23 -89 -44 -82 -56 3 -5 44 -5 92 0 63 7 98 6 127
-2 l41 -13 -5 -61 c-3 -34 -17 -96 -31 -136 -15 -41 -25 -76 -23 -78 18 -18
90 76 121 161 11 27 19 76 19 114 1 61 -1 67 -24 79 -39 20 -176 16 -235 -8z"/>
<path d="M1570 926 c0 -37 200 -186 355 -264 184 -93 374 -137 590 -136 154 0
219 10 375 55 162 47 390 169 398 214 8 39 -15 37 -137 -9 -276 -105 -558
-139 -848 -101 -237 31 -502 122 -675 231 -43 27 -58 30 -58 10z"/>
</g>
</svg>
